<svg width="16" height="11" viewBox="0 0 16 11" fill="none" xmlns="http://www.w3.org/2000/svg">
<path d="M14.9344 1.99617C14.8553 1.89951 14.7558 1.82166 14.6429 1.76827C14.5301 1.71487 14.4067 1.68729 14.2819 1.6875H3.58207L3.36656 0.464766C3.34358 0.334522 3.27545 0.21654 3.17412 0.131543C3.07279 0.046547 2.94476 -2.7788e-05 2.8125 1.24384e-08H0.5625C0.413316 1.24384e-08 0.270242 0.0592633 0.164752 0.164753C0.0592632 0.270242 0 0.413316 0 0.5625C0 0.711684 0.0592632 0.854758 0.164752 0.960247C0.270242 1.06574 0.413316 1.125 0.5625 1.125H2.3407L3.94594 10.2227C3.96892 10.353 4.03705 10.471 4.13838 10.556C4.23971 10.641 4.36774 10.6875 4.5 10.6875H13.5C13.6492 10.6875 13.7923 10.6282 13.8977 10.5227C14.0032 10.4173 14.0625 10.2742 14.0625 10.125C14.0625 9.97582 14.0032 9.83274 13.8977 9.72725C13.7923 9.62176 13.6492 9.5625 13.5 9.5625H4.9718L4.77352 8.4375H13.2694C13.4644 8.43725 13.6534 8.36961 13.8044 8.24604C13.9553 8.12246 14.0589 7.95052 14.0977 7.75934L15.1102 2.69684C15.1346 2.57432 15.1314 2.44791 15.101 2.32674C15.0706 2.20557 15.0137 2.09266 14.9344 1.99617Z" fill="#272727"/>
</svg>
