<svg width="15" height="15" viewBox="0 0 15 15" fill="none" xmlns="http://www.w3.org/2000/svg">
<path d="M14.368 13.127L11.0602 9.81914C11.8565 8.75895 12.2864 7.46848 12.285 6.1425C12.285 2.75555 9.52945 0 6.1425 0C2.75555 0 0 2.75555 0 6.1425C0 9.52945 2.75555 12.285 6.1425 12.285C7.46848 12.2864 8.75895 11.8565 9.81914 11.0602L13.127 14.368C13.2944 14.5177 13.5128 14.5976 13.7373 14.5913C13.9618 14.585 14.1754 14.493 14.3342 14.3342C14.493 14.1754 14.585 13.9618 14.5913 13.7373C14.5976 13.5128 14.5177 13.2944 14.368 13.127ZM1.755 6.1425C1.755 5.27473 2.01232 4.42646 2.49443 3.70494C2.97653 2.98342 3.66177 2.42106 4.46348 2.08898C5.26519 1.7569 6.14737 1.67001 6.99846 1.8393C7.84955 2.0086 8.63133 2.42647 9.24493 3.04007C9.85853 3.65367 10.2764 4.43545 10.4457 5.28654C10.615 6.13763 10.5281 7.01981 10.196 7.82152C9.86394 8.62323 9.30159 9.30847 8.58006 9.79057C7.85854 10.2727 7.01027 10.53 6.1425 10.53C4.97929 10.5286 3.86412 10.0659 3.04161 9.24339C2.2191 8.42088 1.7564 7.30571 1.755 6.1425Z" fill="#272727"/>
</svg>
