<svg width="15" height="16" viewBox="0 0 15 16" fill="none" xmlns="http://www.w3.org/2000/svg">
<path d="M10.0071 1.14539C9.32294 0.406758 8.36739 0 7.3127 0C6.25239 0 5.29368 0.404297 4.6127 1.13836C3.92434 1.88051 3.58895 2.88914 3.6677 3.97828C3.8238 6.12703 5.45891 7.875 7.3127 7.875C9.16649 7.875 10.7988 6.12738 10.9573 3.97898C11.0372 2.89969 10.6997 1.89316 10.0071 1.14539ZM13.5002 15.75H1.1252C0.963224 15.7521 0.802814 15.7181 0.655641 15.6504C0.50847 15.5827 0.378237 15.4831 0.27442 15.3587C0.0459042 15.0855 -0.0462052 14.7125 0.0219979 14.3353C0.318717 12.6893 1.24473 11.3066 2.7002 10.3359C3.99325 9.47426 5.63118 9 7.3127 9C8.99422 9 10.6322 9.47461 11.9252 10.3359C13.3807 11.3062 14.3067 12.6889 14.6034 14.335C14.6716 14.7122 14.5795 15.0852 14.351 15.3584C14.2472 15.4828 14.117 15.5825 13.9698 15.6502C13.8226 15.718 13.6622 15.7521 13.5002 15.75Z" fill="#272727"/>
</svg>
